<svg xmlns="http://www.w3.org/2000/svg" xmlns:xlink="http://www.w3.org/1999/xlink" viewBox="0 0 732.58 211.56"><defs><style>.cls-1{fill:url(#linear-gradient);}.cls-2{fill:url(#linear-gradient-2);}.cls-3{fill:url(#linear-gradient-3);}</style><linearGradient id="linear-gradient" x1="101.58" y1="105.78" x2="787.61" y2="105.78" gradientUnits="userSpaceOnUse"><stop offset="0" stop-color="#ef4e7b"/><stop offset="0.15" stop-color="#f37055"/><stop offset="0.29" stop-color="#f79533"/><stop offset="0.46" stop-color="#6dba82"/><stop offset="0.62" stop-color="#07b39b"/><stop offset="0.76" stop-color="#1098ad"/><stop offset="0.87" stop-color="#5073b8"/><stop offset="1" stop-color="#a166ab"/></linearGradient><linearGradient id="linear-gradient-2" x1="101.58" y1="142.88" x2="787.61" y2="142.88" xlink:href="#linear-gradient"/><linearGradient id="linear-gradient-3" x1="101.58" y1="135.65" x2="787.61" y2="135.65" xlink:href="#linear-gradient"/></defs><title>colorized</title><g id="Layer_2" data-name="Layer 2"><g id="Layer_1-2" data-name="Layer 1"><path class="cls-1" d="M140.91,90.57A51.84,51.84,0,0,0,120.6,77.44c-.61-.22-.77-.5-.68-1.11.28-1.88.5-3.76.75-5.65l.81-6.19,21.39,3.38L145,54.23,123.2,50.9l3.09-24.06,13.47,17.37,10.8-8.33L122.86,0,87,27.71l8.35,10.81,17.41-13.44L109.66,49,86.78,45.36,84.66,58.82l23.27,3.61-1.52,11.83C85.52,73.61,68.67,81.36,57.35,99S46,135.14,55.25,153.79L27.51,174,14.14,155.72,3.07,163.8l13.41,18.38L0,194.21l8.08,11.07,16.54-12.07L38,211.56l11-8.06L35.67,185.15l27.7-20.22c15,14.49,32.65,20.1,52.86,14.7s32.73-19.1,38.49-39.18L156,125.38A52.89,52.89,0,0,0,140.91,90.57Zm-15.08,69.72a40,40,0,1,1,9-55.68A40,40,0,0,1,125.84,160.28Z"/><path class="cls-2" d="M706.86,111.36l-11.25,7.75,12.46,18.11-1.88-.35c-15.6-2.87-31.2-5.76-46.82-8.58-1.18-.21-1.21-.76-1.25-1.66l-1.26,15.07,1.05.19a51.72,51.72,0,0,0,1.33-11.32,51.72,51.72,0,0,1-1.33,11.32l47.71,8.78-18.1,12.49,7.76,11.24,37.32-25.73Z"/><path class="cls-3" d="M152.46,128.41v14.49c170.09,29,340.18-29,510.27,0V128.41c-170.09-29-340.18,29-510.27,0"/><path d="M171.69,58.6l1.62.13q3.13,7,8.84,22a58.65,58.65,0,0,0,3.63,8.37,4.77,4.77,0,0,0,3.16,1.94c.47.09.71.32.71.66s-.31.72-.92.67q-.5,0-2.59-.34-2.47-.38-4.15-.51t-4.27-.13q-2,0-2.59-.06Q174,91.29,174,90.6q0-.52.76-.53c1.94,0,2.92-.71,2.92-2.07a14.26,14.26,0,0,0-.85-3.56A48.08,48.08,0,0,0,175,79.68l-2.4-.22-7.44-.62q-2,5.41-2,7.23a2.58,2.58,0,0,0,1,2.11,5,5,0,0,0,2.21,1c.6.12.9.39.9.81s-.32.61-1,.55q-.38,0-2-.3-2.09-.36-3-.45a26,26,0,0,0-3.56-.1,4.42,4.42,0,0,1-.71,0q-.88-.09-.88-.8a.6.6,0,0,1,.57-.63,4.74,4.74,0,0,0,4-2.87,34.06,34.06,0,0,0,2.24-5.17Q165.86,72.24,171.69,58.6ZM170,66.74,165.9,77q4.19.31,8.39.59-.66-1.91-2-5.27Q170.75,68.68,170,66.74Z"/><path d="M199.55,76.47a11.09,11.09,0,0,1,3.5-3.23,7.46,7.46,0,0,1,4-.93,6.42,6.42,0,0,1,3.3,1.08,5.17,5.17,0,0,1,2,2.3,10,10,0,0,1,.53,3.65l-.21,9.45a6.25,6.25,0,0,0,.36,2.6,2.06,2.06,0,0,0,1.49.89q.95.21.95.8t-.92.58q-.78,0-3.44-.34-.92-.09-1.49-.12c-.36,0-1.41,0-3.13.09l-1.16-.06q-1,0-1-.69t.88-.64a2.84,2.84,0,0,0,1.28-.48q.47-.36.63-3.7t.15-6.64a14.76,14.76,0,0,0-.58-5,2.33,2.33,0,0,0-2.22-1.47q-2-.1-3.74,2.76t-1.72,9a17.84,17.84,0,0,0,.24,3.45,2.65,2.65,0,0,0,.58,1.37,3.76,3.76,0,0,0,1.46.54c.44.1.66.34.66.72s-.32.65-1,.61c-.32,0-.66-.05-1-.1-1.52-.21-2.34-.33-2.47-.33q-3.41-.2-5.6-.1a4.66,4.66,0,0,1-.57,0q-.88-.06-.88-.74t.78-.64a2.28,2.28,0,0,0,1.64-.56q.43-.5.63-3.23t.2-6.53a29,29,0,0,0-.36-6A2.87,2.87,0,0,0,191.7,73q-1-.44-1-.8c0-.38.47-.54,1.4-.48a50.27,50.27,0,0,0,6.38.07A13.79,13.79,0,0,1,199.55,76.47Z"/><path d="M256.43,63.42q.76,3.71,1.49,7.41a.6.6,0,0,1-.68.68q-.38,0-.85-.67a15.46,15.46,0,0,0-4.47-4.73,12.4,12.4,0,0,0-5.85-1.22,23.85,23.85,0,0,0-4.13.28,90.57,90.57,0,0,0-.43,9.18q0,.85,0,2.86l1.8.06a8.1,8.1,0,0,0,2.91-.41,4.06,4.06,0,0,0,2.08-1.93,12.25,12.25,0,0,0,1-1.92c.14-.5.39-.75.74-.75s.66.2.66.58a1.78,1.78,0,0,1,0,.38,72.51,72.51,0,0,0-.29,8.79,8.57,8.57,0,0,0,.18,1.85,1.92,1.92,0,0,1,.05.4q0,.66-.76.65-.52,0-.81-1.27a5.32,5.32,0,0,0-2.17-3.39,10.08,10.08,0,0,0-5.33-1.3q-.12,4-.12,5.24,0,5.41.17,6.43a2.4,2.4,0,0,0,1.21,1.67,7.3,7.3,0,0,0,3.54.69c6,.1,10-1.78,11.89-5.59q.4-.8.87-.8.68,0,.68.57a4.34,4.34,0,0,1-.14,1L258.11,95l-8.58-.12q-3.63-.08-6.77-.28t-4.92-.25q-2,0-6,.08c-.33,0-.58,0-.74,0q-1.11,0-1.11-.77t.9-.64q2.3.07,3.09-1.16t.79-5.06l.14-12.2q0-6.25-.15-7.69a2.81,2.81,0,0,0-.82-2,5.86,5.86,0,0,0-2.49-.84q-.76-.12-.76-.69t.88-.69l5.72.32Q246.86,63.3,256.43,63.42Z"/><path d="M270.25,78.51A10,10,0,0,1,273,74.93a5.52,5.52,0,0,1,3.44-1.19,4,4,0,0,1,2.88,1,3.46,3.46,0,0,1,1.08,2.6,3.06,3.06,0,0,1-.77,2.1,2.44,2.44,0,0,1-1.88.87,2.16,2.16,0,0,1-1.38-.42,5.15,5.15,0,0,1-1.16-1.51q-.85-1.56-1.49-1.56-.88,0-2,1.78t-1.11,6.89q0,6.47.44,7.19t1.93.72c.87,0,1.3.23,1.3.71s-.43.67-1.28.67q-.71,0-2.06-.13t-2.32-.11q-2.35,0-4.65.15l-1.14.07c-.66,0-1-.25-1-.75s.39-.66,1.16-.69a2.23,2.23,0,0,0,1.59-.52,3.35,3.35,0,0,0,.45-2.12l.09-5.92q0-1.8-.14-4.48a29.52,29.52,0,0,0-.26-3.19,1.7,1.7,0,0,0-.6-.91,2.35,2.35,0,0,0-1.32-.48,3.44,3.44,0,0,1-1.08-.23.57.57,0,0,1-.23-.54q0-.64,1.19-.66c1.46,0,3.93-.18,7.42-.55Z"/><path d="M304.12,83.53a11.54,11.54,0,0,1-11.5,11.33,10.92,10.92,0,0,1-7.73-2.77,9.68,9.68,0,0,1-3.13-7.57,10.06,10.06,0,0,1,3.31-7.82,11.78,11.78,0,0,1,8.05-3.06A11.21,11.21,0,0,1,301,76.34,9.17,9.17,0,0,1,304.12,83.53Zm-6.55,1.74a18.24,18.24,0,0,0-1.29-7q-1.29-3.13-3.71-3.1a3.66,3.66,0,0,0-3.3,2.23,13.45,13.45,0,0,0-1.16,6.17,16.45,16.45,0,0,0,1.32,7.08q1.32,2.75,3.62,2.72a3.69,3.69,0,0,0,3.39-2.25A12.83,12.83,0,0,0,297.57,85.27Z"/><path d="M316.78,73.53q1.45-.11,4.43-.18a8.7,8.7,0,0,1,2.23.18q-.36,1.79-.63,1.91c-.18.08-2.19.29-6,.61l-.26,10.47a17,17,0,0,0,.22,3.27,3.08,3.08,0,0,0,1,1.73,3,3,0,0,0,2.09.66A7.2,7.2,0,0,0,323,90.92a1.19,1.19,0,0,1,.52-.18q.45,0,.45.46,0,.69-1.92,1.93a8.55,8.55,0,0,1-4.51,1.3,7,7,0,0,1-4.8-1.38Q311,91.6,311,86.78q0-5.31.19-10.61a30.93,30.93,0,0,1-3.32,0q-1-.1-1-.67t1.12-.78a10.51,10.51,0,0,0,3.95-1.89,10.33,10.33,0,0,0,3-4.22,10.85,10.85,0,0,1,.68-1.43.61.61,0,0,1,.51-.26q.69,0,.69,1.12Z"/><path d="M334.93,72.61q.09,3.32.09,11.83l-.07,5.1a3,3,0,0,0,.51,2,2.76,2.76,0,0,0,1.67.63q1.33.12,1.33.71t-1,.68q-.5,0-1.73,0-2.61-.08-5.17,0-1.26,0-2.56.21a9.72,9.72,0,0,1-1.07.14q-1,0-1-.61t1.38-.77q1.83-.22,2-1.28a27.07,27.07,0,0,0,.21-4.29q0-4.17-.13-7.67t-.49-4q-.36-.49-1.85-.61-1.16-.09-1.16-.65t1.19-.7l.5-.06Zm-.33-8a3.57,3.57,0,0,1-3.42,3.52,3.17,3.17,0,0,1-2.42-.93,3.21,3.21,0,0,1-1-2.38,3.53,3.53,0,0,1,3.42-3.52,3.21,3.21,0,0,1,2.41.92A3.17,3.17,0,0,1,334.6,64.61Z"/><path d="M341.52,83.21a11,11,0,0,1,3.06-7.74A10.64,10.64,0,0,1,352.26,72a9.57,9.57,0,0,1,5.35,1.25q2.31,1.37,2.31,3.36a2.56,2.56,0,0,1-.7,1.89,2.54,2.54,0,0,1-1.77.75q-2,.08-2.92-2.84a6.47,6.47,0,0,0-1-2.27,2.05,2.05,0,0,0-1.71-.63,3.29,3.29,0,0,0-2.93,2.06,13.69,13.69,0,0,0-1,5.88,13.4,13.4,0,0,0,1.61,7.08A4.56,4.56,0,0,0,353.67,91q3.42-.13,4.82-4.24.45-1.3,1.07-1.32t.66.68a7.39,7.39,0,0,1-2.1,4.55,8.18,8.18,0,0,1-6.28,2.65,9.52,9.52,0,0,1-7.45-2.7A10.09,10.09,0,0,1,341.52,83.21Z"/><path d="M375.22,89.65a12,12,0,0,1-3,2.23,7.26,7.26,0,0,1-3,.83,4.58,4.58,0,0,1-3.74-1.3,4.92,4.92,0,0,1-1.32-3.5A5.51,5.51,0,0,1,365,85a6.23,6.23,0,0,1,2-2.05,25.59,25.59,0,0,1,3.87-1.84,20.6,20.6,0,0,0,3-1.4,4,4,0,0,0,1.29-1.41,4.66,4.66,0,0,0,.52-2.33,3.62,3.62,0,0,0-.78-2.46,2.54,2.54,0,0,0-2.15-.84,2.17,2.17,0,0,0-1.68.66,4.72,4.72,0,0,0-.76,2q-.55,2.71-2.92,2.82a2.43,2.43,0,0,1-1.66-.5A1.92,1.92,0,0,1,365,76a3.82,3.82,0,0,1,2.48-3.51,14.63,14.63,0,0,1,5.92-1.38,10.9,10.9,0,0,1,4.83.69,4.36,4.36,0,0,1,2.38,2,9.57,9.57,0,0,1,.52,3.68l0,5.62a32.22,32.22,0,0,0,.3,5.68q.3,1.24,1.27,1.2l.38,0,.64-.08q1,0,1,.5a.76.76,0,0,1-.4.62,10.5,10.5,0,0,1-2.43.74,20.4,20.4,0,0,1-3.66.54,3,3,0,0,1-2.24-.52A3.28,3.28,0,0,1,375.22,89.65Zm.31-9.52a10.67,10.67,0,0,1-2.73,1.95,9.65,9.65,0,0,0-2.63,2,3.9,3.9,0,0,0-.66,2.43,3.83,3.83,0,0,0,.7,2.5,2,2,0,0,0,1.72.79,3.65,3.65,0,0,0,2.56-1.38q1.19-1.32,1.19-4.53Q375.67,82.86,375.53,80.13Z"/><path d="M417.94,59.64a3.68,3.68,0,0,0,.62-1c.24-.51.51-.77.81-.79s.69.31.78,1l.83,6.46.09.78a.6.6,0,0,1-.64.67.87.87,0,0,1-.69-.19,7.57,7.57,0,0,1-.81-1.42,9.53,9.53,0,0,0-3.37-3.64,7.71,7.71,0,0,0-4.72-1.46A5.92,5.92,0,0,0,407,61.59,4.42,4.42,0,0,0,405.48,65a3.61,3.61,0,0,0,1.42,2.81Q408.33,69,412.39,70q6.36,1.49,8.61,4a8.55,8.55,0,0,1,2.23,5.79,9.6,9.6,0,0,1-1.64,5.65,13.27,13.27,0,0,1-3.91,3.74,12.12,12.12,0,0,1-5.83,1.58,15.76,15.76,0,0,1-4.17-.38,22.29,22.29,0,0,1-4.46-1.53,5,5,0,0,0-.81,1.46q-.38,1-.95,1t-.71-1.25l-.69-8.58q0-.57,0-.71a.65.65,0,0,1,.71-.72q.52,0,1,1.14A15.69,15.69,0,0,0,405.65,87,7.68,7.68,0,0,0,411.41,89a6.54,6.54,0,0,0,4.52-1.88,5.39,5.39,0,0,0,1.72-3.86,4.39,4.39,0,0,0-1.59-3.48,15.38,15.38,0,0,0-5.71-2.49,28.56,28.56,0,0,1-6-2.2,8.6,8.6,0,0,1-4.3-7.26A8.66,8.66,0,0,1,403,61.4a11.77,11.77,0,0,1,7.84-3A22.07,22.07,0,0,1,417.94,59.64Z"/><path d="M433,78.32c0,.46,0,.79,0,1a9.26,9.26,0,0,0,1.65,5.62,4.9,4.9,0,0,0,4.45,2.12,8.93,8.93,0,0,0,5.64-2.77,1.81,1.81,0,0,1,.81-.54q.62,0,.62.63t-1.42,1.94a9.81,9.81,0,0,1-3.49,2.21,13.76,13.76,0,0,1-4.27.9q-4.84.24-7.58-2.58A9.43,9.43,0,0,1,426.69,80a11.73,11.73,0,0,1,3.14-8.23,11,11,0,0,1,7.84-3.65q4.41-.22,6.72,2.63a8.89,8.89,0,0,1,2.31,5.53q0,.85-.45,1a13.63,13.63,0,0,1-2.92.31Zm.14-1.74,4.06-.15a8.34,8.34,0,0,0,3.28-.54,1.77,1.77,0,0,0,.61-1.57A5.37,5.37,0,0,0,440,70.93a3.07,3.07,0,0,0-2.66-1.36Q433.71,69.75,433.19,76.58Z"/><path d="M461,85.51a12.11,12.11,0,0,1-3,2.24,7.3,7.3,0,0,1-3,.84,4.56,4.56,0,0,1-3.74-1.28,4.89,4.89,0,0,1-1.32-3.49,5.55,5.55,0,0,1,.79-2.93,6.29,6.29,0,0,1,2-2.07A25.52,25.52,0,0,1,456.56,77a20.94,20.94,0,0,0,3-1.42,4,4,0,0,0,1.29-1.41,4.67,4.67,0,0,0,.52-2.33,3.61,3.61,0,0,0-.78-2.45,2.53,2.53,0,0,0-2.15-.83,2.18,2.18,0,0,0-1.68.67,4.74,4.74,0,0,0-.76,2q-.55,2.72-2.92,2.83a2.42,2.42,0,0,1-1.66-.49,1.9,1.9,0,0,1-.69-1.6,3.86,3.86,0,0,1,2.48-3.52A14.62,14.62,0,0,1,459.18,67a10.84,10.84,0,0,1,4.83.67,4.34,4.34,0,0,1,2.38,2,9.57,9.57,0,0,1,.52,3.68l0,5.62a32.2,32.2,0,0,0,.3,5.68q.3,1.24,1.27,1.2l.38,0,.64-.08q1,0,1,.5a.76.76,0,0,1-.4.62,10.56,10.56,0,0,1-2.43.74,20.56,20.56,0,0,1-3.66.55,3,3,0,0,1-2.24-.52A3.27,3.27,0,0,1,461,85.51Zm.31-9.53a10.74,10.74,0,0,1-2.73,2,9.7,9.7,0,0,0-2.63,2,3.92,3.92,0,0,0-.66,2.43,3.81,3.81,0,0,0,.7,2.5,2,2,0,0,0,1.72.78,3.68,3.68,0,0,0,2.56-1.39q1.19-1.33,1.19-4.54Q461.41,78.71,461.27,76Z"/><path d="M480.52,70.81a10.67,10.67,0,0,1,2.73-3.7,5.72,5.72,0,0,1,3.44-1.34,3.82,3.82,0,0,1,2.88.92,3.34,3.34,0,0,1,1.08,2.56,3.17,3.17,0,0,1-.77,2.13,2.54,2.54,0,0,1-1.88.95,2.09,2.09,0,0,1-1.38-.37,4.87,4.87,0,0,1-1.16-1.47Q484.6,69,484,69q-.88,0-2,1.86t-1.11,6.94q0,6.47.44,7.17t1.93.64q1.3-.06,1.3.65t-1.28.72q-.71,0-2.06,0t-2.32,0q-2.35.11-4.65.38l-1.14.12q-1,0-1-.7t1.16-.75a2.35,2.35,0,0,0,1.59-.61,3.46,3.46,0,0,0,.45-2.14l.09-5.93q0-1.8-.14-4.47a29.16,29.16,0,0,0-.26-3.17,1.59,1.59,0,0,0-.6-.88,2.24,2.24,0,0,0-1.32-.41,3.37,3.37,0,0,1-1.08-.18c-.15-.08-.23-.25-.23-.52q0-.64,1.19-.72,2.18-.12,7.42-.9Z"/><path d="M493,76.29a11.06,11.06,0,0,1,3.06-7.76A10.63,10.63,0,0,1,503.77,65a9.53,9.53,0,0,1,5.35,1.26q2.31,1.37,2.31,3.37a2.55,2.55,0,0,1-.7,1.89,2.53,2.53,0,0,1-1.77.74q-2,.08-2.92-2.84a6.46,6.46,0,0,0-1-2.27,2,2,0,0,0-1.71-.62,3.29,3.29,0,0,0-2.93,2.06,13.71,13.71,0,0,0-1,5.88A13.38,13.38,0,0,0,501,81.58a4.57,4.57,0,0,0,4.18,2.51q3.42-.13,4.82-4.24.45-1.3,1.07-1.32t.66.69a7.36,7.36,0,0,1-2.1,4.55,8.2,8.2,0,0,1-6.28,2.64,9.54,9.54,0,0,1-7.45-2.68A10,10,0,0,1,493,76.29Z"/><path d="M523.12,52.86q-.09,2.38-.1,4.08l0,6.33q0,4.08.07,5a10.31,10.31,0,0,1,3.12-3A7.78,7.78,0,0,1,530,64.23a6.65,6.65,0,0,1,3.15.68,5,5,0,0,1,2.31,2.5q.82,1.77.82,6.23l-.07,7.46q0,2.45,1.92,2.59.76.05.76.62t-.81.71c-.14,0-.36,0-.64,0a46,46,0,0,0-4.91-.06q-.54,0-2,.2-1,.12-1.73.15-1,0-1-.61t1.09-.74a1.71,1.71,0,0,0,1.4-1.39,45.14,45.14,0,0,0,.31-7.2,28.3,28.3,0,0,0-.56-7.16,2.13,2.13,0,0,0-2.26-1.62,4.07,4.07,0,0,0-2.8,1.52,7.61,7.61,0,0,0-1.8,4,39.46,39.46,0,0,0-.43,6.31,25.82,25.82,0,0,0,.19,3.35,3.52,3.52,0,0,0,.53,1.77,1.94,1.94,0,0,0,1.17.44q.9.07.9.73t-1,.65q-.76,0-2.21-.06-1.19-.07-2.11,0a29.89,29.89,0,0,0-3.49.31,19,19,0,0,1-2.11.17c-.46,0-.69-.2-.69-.64s.32-.6,1-.72a2.1,2.1,0,0,0,1.67-1.07q.46-.88.63-6.27t.17-16.46a11.42,11.42,0,0,0-.52-4.38,2.74,2.74,0,0,0-1.75-1.35Q514,54.5,514,54t1-.68Q518.63,53.2,523.12,52.86Z"/><path d="M580.16,53.07q.76,3.7,1.49,7.39a.61.61,0,0,1-.68.69q-.38,0-.85-.66a15,15,0,0,0-4.47-4.66,12.06,12.06,0,0,0-5.85-1.09,23.32,23.32,0,0,0-4.13.4,90.93,90.93,0,0,0-.43,9.19q0,.85,0,2.86h1.8a8.29,8.29,0,0,0,2.91-.49,4.22,4.22,0,0,0,2.08-2,12.62,12.62,0,0,0,1-1.94q.21-.76.74-.76t.66.56a1.78,1.78,0,0,1,0,.38,72.72,72.72,0,0,0-.29,8.8,8.52,8.52,0,0,0,.18,1.85,1.9,1.9,0,0,1,.05.4q0,.66-.76.67-.52,0-.81-1.25a5.15,5.15,0,0,0-2.17-3.34A9.78,9.78,0,0,0,565.28,69q-.12,4-.12,5.24,0,5.41.17,6.43a2.3,2.3,0,0,0,1.21,1.63,7.25,7.25,0,0,0,3.54.59c6-.06,10-2,11.89-5.81q.4-.81.87-.81.68,0,.68.57a4.34,4.34,0,0,1-.14,1l-1.54,6.81-8.58,0q-3.63,0-6.77-.1t-4.92-.08q-2,0-6,.33c-.33,0-.58.06-.74.06q-1.12,0-1.11-.72t.9-.68q2.3,0,3.1-1.3t.79-5.1l.14-12.21q0-6.25-.15-7.69a2.68,2.68,0,0,0-.82-1.93,5.6,5.6,0,0,0-2.49-.73q-.76-.08-.76-.65t.88-.73l5.72.08Q570.59,53.07,580.16,53.07Z"/><path d="M594.36,67.93a11.82,11.82,0,0,1,3.5-3.39,7.6,7.6,0,0,1,4-1.1,6.18,6.18,0,0,1,3.3,1,4.92,4.92,0,0,1,2,2.23,9.83,9.83,0,0,1,.53,3.64l-.21,9.46a6.17,6.17,0,0,0,.36,2.59,2,2,0,0,0,1.49.85c.63.12.95.38.95.77s-.31.61-.92.6-1.67-.09-3.44-.24q-.92-.06-1.49-.07t-3.13.2H600.2q-1,0-1-.65t.88-.68a3,3,0,0,0,1.28-.53q.47-.37.63-3.72t.15-6.65a14.53,14.53,0,0,0-.58-5,2.21,2.21,0,0,0-2.22-1.38q-2,0-3.73,2.92t-1.72,9.06a17.61,17.61,0,0,0,.24,3.44,2.5,2.5,0,0,0,.58,1.34,3.61,3.61,0,0,0,1.46.47q.66.12.66.69t-1,.66c-.32,0-.66,0-1,0q-2.28-.21-2.47-.21a51.8,51.8,0,0,0-5.6.22,4.59,4.59,0,0,1-.57,0c-.58,0-.88-.23-.88-.69s.26-.62.78-.69a2.43,2.43,0,0,0,1.64-.66,7.84,7.84,0,0,0,.63-3.26q.2-2.74.2-6.54a28.56,28.56,0,0,0-.36-6,2.63,2.63,0,0,0-1.71-1.68q-1-.38-1-.74,0-.57,1.4-.57a54.8,54.8,0,0,0,6.38-.29A13.35,13.35,0,0,1,594.36,67.93Z"/><path d="M629.89,66.12q2.8-2.38,4.89-2.3a3.39,3.39,0,0,1,2.29.89,2.54,2.54,0,0,1,.89,1.88,2.32,2.32,0,0,1-.62,1.58,2,2,0,0,1-1.68.66,2.35,2.35,0,0,1-2.16-1.69q-.45-1.08-.88-1.1a4.1,4.1,0,0,0-1.87,1.08A7.45,7.45,0,0,1,632,71.24a7.27,7.27,0,0,1-4.38,6.6,17.54,17.54,0,0,1-5.16.95c-1.91.13-3.08.39-3.49.79a1.93,1.93,0,0,0-.64,1.41q0,.95,1.3,1.26a59.07,59.07,0,0,0,7.09.64c5.95.36,8.92,2.44,8.92,6.15a7.3,7.3,0,0,1-3.33,6.18c-2.22,1.59-5.58,2.32-10.07,2.21-3.38-.09-5.83-.63-7.33-1.65a4.07,4.07,0,0,1-.42-7.05A13.41,13.41,0,0,1,620,86.56a9.61,9.61,0,0,1-4.2-1.31,3,3,0,0,1-1.4-2.57,3.61,3.61,0,0,1,1.3-2.84,8.66,8.66,0,0,1,3.89-1.69,8.76,8.76,0,0,1-4.07-2.51,6,6,0,0,1-1.36-4,7.13,7.13,0,0,1,2.75-5.72,9.85,9.85,0,0,1,6.78-2.17,10.41,10.41,0,0,1,3.46.64A7.74,7.74,0,0,1,629.89,66.12ZM617.34,91.74a3.59,3.59,0,0,0,1.6,2.86,7.54,7.54,0,0,0,4.52,1.32,10,10,0,0,0,5.87-1.44,4.44,4.44,0,0,0,2.34-3.74A2.87,2.87,0,0,0,629.79,88a11.9,11.9,0,0,0-4.81-1,9.64,9.64,0,0,0-5.56,1.25A4,4,0,0,0,617.34,91.74Zm2.54-20.92a9.21,9.21,0,0,0,1,4.77,3,3,0,0,0,2.46,1.74,2.28,2.28,0,0,0,2.21-1.38,9.67,9.67,0,0,0,.74-4.29,10.75,10.75,0,0,0-.89-4.8,2.72,2.72,0,0,0-2.29-1.8,2.6,2.6,0,0,0-2.34,1.51A8.37,8.37,0,0,0,619.88,70.82Z"/><path d="M648.46,64.67q.09,3.33.09,11.84l-.07,5.1a3.13,3.13,0,0,0,.51,2.09,3,3,0,0,0,1.67.77q1.33.23,1.33.82t-1,.59q-.5,0-1.73-.16-2.61-.29-5.17-.4a24.88,24.88,0,0,0-2.56,0,9.52,9.52,0,0,1-1.07.06q-1,0-1-.68t1.38-.68q1.83-.09,2-1.14a26.77,26.77,0,0,0,.21-4.27q0-4.17-.13-7.68t-.49-4a2.81,2.81,0,0,0-1.85-.74q-1.16-.17-1.16-.73t1.19-.62l.5,0Zm-.33-8a3.26,3.26,0,0,1-3.42,3.26,3.6,3.6,0,0,1-3.42-3.56,3.23,3.23,0,0,1,3.42-3.27,3.61,3.61,0,0,1,3.42,3.57Z"/><path d="M662.66,70.06a10.89,10.89,0,0,1,3.5-3.2,7.32,7.32,0,0,1,4-.87,6.47,6.47,0,0,1,3.3,1.15,5.35,5.35,0,0,1,2,2.35,10.09,10.09,0,0,1,.53,3.67l-.21,9.45a6.33,6.33,0,0,0,.36,2.61,2.14,2.14,0,0,0,1.49.94q.95.24.95.83t-.92.55c-.52,0-1.67-.19-3.44-.44q-.92-.11-1.49-.15c-.36,0-1.41,0-3.13,0l-1.16-.08c-.65,0-1-.28-1-.7s.29-.56.88-.63a2.8,2.8,0,0,0,1.28-.46q.47-.35.63-3.69t.15-6.64a14.85,14.85,0,0,0-.58-5.05,2.37,2.37,0,0,0-2.22-1.5q-2-.13-3.73,2.72t-1.72,9a17.86,17.86,0,0,0,.24,3.45,2.65,2.65,0,0,0,.58,1.37,3.81,3.81,0,0,0,1.46.55q.66.16.66.73t-1,.6c-.32,0-.66-.06-1-.11-1.52-.22-2.34-.33-2.47-.34a51,51,0,0,0-5.6-.07,4.65,4.65,0,0,1-.57,0q-.88,0-.88-.73t.78-.65a2.31,2.31,0,0,0,1.64-.58,7.59,7.59,0,0,0,.63-3.23q.2-2.73.2-6.53a28.91,28.91,0,0,0-.36-6,2.83,2.83,0,0,0-1.71-1.77q-1-.43-1-.79,0-.57,1.4-.5a55.41,55.41,0,0,0,6.38.05A13.83,13.83,0,0,1,662.66,70.06Z"/><path d="M687.64,77.27c0,.46,0,.79,0,1a10.3,10.3,0,0,0,1.65,5.84,5.76,5.76,0,0,0,4.45,2.73,7.78,7.78,0,0,0,5.64-2q.57-.44.81-.42a.63.63,0,0,1,.62.72q0,.52-1.42,1.73a8.22,8.22,0,0,1-3.49,1.71,13.17,13.17,0,0,1-4.27.3,10.82,10.82,0,0,1-7.58-3.6,10.69,10.69,0,0,1-2.74-7.18,10.34,10.34,0,0,1,3.14-7.82,9.57,9.57,0,0,1,7.84-2.59A8.84,8.84,0,0,1,699,71.33a10.28,10.28,0,0,1,2.31,5.87c0,.57-.15.89-.45,1a13.59,13.59,0,0,1-2.92-.12Q692.78,77.64,687.64,77.27Zm.14-1.72,4.06.4a8,8,0,0,0,3.28-.08q.61-.32.61-1.49a6.05,6.05,0,0,0-1.12-3.54A3.63,3.63,0,0,0,692,69.11Q688.3,68.78,687.78,75.55Z"/></g></g></svg>