<svg id="Layer_1" data-name="Layer 1" xmlns="http://www.w3.org/2000/svg" viewBox="0 0 200 150"><defs><style>.cls-1{fill:#f79533;}.cls-2{fill:#f37055;}.cls-3{fill:#ef4e7b;}.cls-4{fill:#a166ab;}.cls-5{fill:#5073b8;}.cls-6{fill:#1098ad;}.cls-7{fill:#07b39b;}.cls-8{fill:#6dba82;}</style></defs><title>Queer_e logo</title><rect class="cls-1" x="53.92" y="49.67" width="21.2" height="50" rx="2" ry="2"/><rect class="cls-2" x="31.15" y="49.67" width="21.2" height="50" rx="2" ry="2"/><rect class="cls-3" x="8.38" y="49.67" width="21.2" height="50" rx="2" ry="2"/><rect class="cls-4" x="167.77" y="49.67" width="21.2" height="50" rx="2" ry="2"/><rect class="cls-5" x="145" y="49.67" width="21.2" height="50" rx="2" ry="2"/><rect class="cls-6" x="122.23" y="49.67" width="21.2" height="50" rx="2" ry="2"/><rect class="cls-7" x="99.46" y="49.67" width="21.2" height="50" rx="2" ry="2"/><rect class="cls-8" x="76.69" y="49.67" width="21.2" height="50" rx="2" ry="2"/><path d="M33.44,83.5a15.73,15.73,0,0,1-3.51.47,14.24,14.24,0,0,1-6.76-1.76A13.41,13.41,0,0,1,17.83,77a15.19,15.19,0,0,1-2-7.8A15,15,0,0,1,20.55,58a15.66,15.66,0,0,1,11.32-4.62q7.3,0,11.48,4.33a14.44,14.44,0,0,1,4.18,10.4,15.27,15.27,0,0,1-3.17,9.37,20,20,0,0,1-3.89,3.82,31.53,31.53,0,0,1-5.3,3.2l-6.47,3.08a15.13,15.13,0,0,1,1.65-.13,8.3,8.3,0,0,1,3,.58,32.39,32.39,0,0,1,4.41,2.29,25.15,25.15,0,0,0,2.54,1.38,4.05,4.05,0,0,0,1.39.19,5,5,0,0,0,4.22-2.64,1.11,1.11,0,0,1,.88-.6q.83,0,.83.9,0,.72-2.62,3.5a8.66,8.66,0,0,1-6.57,2.78,14.9,14.9,0,0,1-7.82-2.53q-3-1.87-4.2-2.49a4.75,4.75,0,0,0-2.11-.62,2.11,2.11,0,0,0-1.73.69,3.81,3.81,0,0,0-.61,2.29,3.53,3.53,0,0,1-.59,2.15,2.11,2.11,0,0,1-1.65.57,2.3,2.3,0,0,1-1.59-.57A1.8,1.8,0,0,1,17.47,94q0-3.47,8.75-7.2Q31.86,84.33,33.44,83.5Zm6.4-14.75q0-6.83-2.32-10.28a6.69,6.69,0,0,0-11.72,0Q23.5,61.94,23.5,68.75q0,6.54,2.22,10.15a6.72,6.72,0,0,0,5.95,3.61,7.07,7.07,0,0,0,5.75-3.26Q39.85,76,39.85,68.75Z"/><path d="M58,64.21q.11,2.32.11,6.34,0,6.09.11,7.79a4.13,4.13,0,0,0,.89,2.56,2.34,2.34,0,0,0,1.77.86,4,4,0,0,0,2.38-.88,5.2,5.2,0,0,0,1.78-2.3,13.46,13.46,0,0,0,.58-4.65l0-5a10,10,0,0,0-.22-2.62q-.21-.63-1.45-.68T62.69,65a.45.45,0,0,1,.33-.48,8.17,8.17,0,0,1,1.72-.1q3.14,0,5.84-.16.09.88.09,9.63,0,7,.14,7.68t1.47.76q.79.09.79.65c0,.44-.3.65-.9.65l-.56,0q-.63,0-1.49,0-3,0-3.32,0l-.61,0c-.29,0-.46,0-.53-.15a2.09,2.09,0,0,1-.1-.87,18,18,0,0,1,.16-2.37A11.48,11.48,0,0,1,62.43,83a7.43,7.43,0,0,1-3.62.95q-5.75,0-5.75-6.45v-7a17.92,17.92,0,0,0-.26-4.23c-.17-.41-.63-.67-1.37-.78s-1-.29-1-.59.29-.61.88-.61Q57.37,64.35,58,64.21Z"/><path d="M82.4,73.3q0,.65,0,.95a9.17,9.17,0,0,0,1.57,5.42,4.92,4.92,0,0,0,4.23,2.22,8.05,8.05,0,0,0,5.37-2.37c.36-.32.62-.47.77-.47.39,0,.59.21.59.63s-.45.92-1.35,1.78a8.74,8.74,0,0,1-3.31,1.94,12.77,12.77,0,0,1-4.06.65,9.27,9.27,0,0,1-9.81-9.43,10.64,10.64,0,0,1,3-7.68,9.93,9.93,0,0,1,7.45-3.1,7.62,7.62,0,0,1,6.39,2.82A8.88,8.88,0,0,1,95.39,72q0,.81-.43,1a12.82,12.82,0,0,1-2.77.16Zm.13-1.65,3.86,0a7.72,7.72,0,0,0,3.12-.36,1.6,1.6,0,0,0,.58-1.47A5.33,5.33,0,0,0,89,66.6a3.09,3.09,0,0,0-2.53-1.42Q83,65.18,82.54,71.66Z"/><path d="M104.53,73.3c0,.44,0,.75,0,.95a9.16,9.16,0,0,0,1.57,5.42,4.91,4.91,0,0,0,4.23,2.22,8.05,8.05,0,0,0,5.37-2.37c.36-.32.61-.47.77-.47.39,0,.59.21.59.63s-.46.92-1.35,1.78a8.75,8.75,0,0,1-3.32,1.94,12.73,12.73,0,0,1-4.06.65,9.27,9.27,0,0,1-9.81-9.43,10.64,10.64,0,0,1,3-7.68,9.93,9.93,0,0,1,7.45-3.1,7.62,7.62,0,0,1,6.39,2.82,8.89,8.89,0,0,1,2.2,5.37q0,.81-.43,1a12.82,12.82,0,0,1-2.77.16Zm.13-1.65,3.86,0a7.74,7.74,0,0,0,3.13-.36,1.6,1.6,0,0,0,.57-1.47,5.32,5.32,0,0,0-1.06-3.27,3.09,3.09,0,0,0-2.52-1.42Q105.15,65.18,104.66,71.66Z"/><path d="M127.55,68.32a9.57,9.57,0,0,1,2.59-3.4,5.23,5.23,0,0,1,3.27-1.13,3.78,3.78,0,0,1,2.74,1,3.31,3.31,0,0,1,1,2.48,2.9,2.9,0,0,1-.73,2,2.32,2.32,0,0,1-1.79.82,2.06,2.06,0,0,1-1.31-.41,4.9,4.9,0,0,1-1.11-1.44q-.81-1.49-1.42-1.49-.83,0-1.89,1.69T127.87,75q0,6.15.42,6.83c.28.46.89.69,1.84.69s1.24.23,1.24.68-.41.63-1.22.63c-.45,0-1.1,0-2-.12s-1.52-.1-2.21-.1q-2.23,0-4.42.16l-1.08.07q-.95,0-.95-.71t1.1-.66a2.13,2.13,0,0,0,1.51-.51,3.19,3.19,0,0,0,.43-2l.09-5.63q0-1.71-.13-4.26a27.56,27.56,0,0,0-.25-3,1.59,1.59,0,0,0-.57-.87,2.22,2.22,0,0,0-1.25-.45,3.32,3.32,0,0,1-1-.21.54.54,0,0,1-.21-.51q0-.61,1.13-.63,2.08,0,7.06-.54Z"/><path d="M136.44,72.2c0-.47,0-.74.13-.81a2.12,2.12,0,0,1,1-.11h12.83a2.14,2.14,0,0,1,.95.11c.09.08.14.35.14.81v2.52c0,.47,0,.74-.13.81a2.1,2.1,0,0,1-1,.11H137.52a2.1,2.1,0,0,1-1-.11c-.08-.08-.13-.35-.13-.81Z"/><path d="M178.34,54q.72,3.52,1.42,7a.58.58,0,0,1-.65.65q-.36,0-.81-.63A14.45,14.45,0,0,0,174,56.65a11.59,11.59,0,0,0-5.56-1.08,22.4,22.4,0,0,0-3.93.34,87.11,87.11,0,0,0-.41,8.73q0,.81,0,2.72l1.71,0a7.81,7.81,0,0,0,2.76-.44,3.93,3.93,0,0,0,2-1.87,11.84,11.84,0,0,0,.93-1.84q.2-.72.7-.72c.42,0,.63.18.63.54a1.87,1.87,0,0,1,0,.36,69,69,0,0,0-.27,8.37,8.07,8.07,0,0,0,.18,1.76,1.85,1.85,0,0,1,0,.38c0,.42-.24.63-.72.63s-.59-.4-.77-1.2a5,5,0,0,0-2.06-3.19A9.4,9.4,0,0,0,164.2,69q-.12,3.79-.11,5,0,5.14.16,6.11a2.21,2.21,0,0,0,1.15,1.57,6.89,6.89,0,0,0,3.36.6q8.59,0,11.3-5.46.38-.77.83-.77c.43,0,.65.18.65.54a4.13,4.13,0,0,1-.14.93L179.94,84l-8.16,0q-3.45,0-6.44-.16c-2-.09-3.55-.14-4.68-.14s-3.16.08-5.71.23l-.7,0q-1.06,0-1.06-.7c0-.42.29-.63.86-.63A3.23,3.23,0,0,0,157,81.46q.76-1.18.76-4.83l.13-11.6q0-5.95-.15-7.31a2.6,2.6,0,0,0-.78-1.85,5.42,5.42,0,0,0-2.37-.73c-.48-.06-.72-.27-.72-.63s.28-.68.84-.68l5.43.16Z"/></svg>